<svg xmlns="http://www.w3.org/2000/svg" viewBox="0 0 300 200">
  <!-- New Balance NB logo mark -->
  <!-- N letter -->
  <path d="M 10 20 L 10 180 L 50 180 L 50 80 L 110 180 L 150 180 L 150 20 L 110 20 L 110 120 L 50 20 Z" fill="#002d62"/>
  <!-- B letter with two bumps -->
  <path d="M 170 20 L 170 180 L 240 180 C 275 180 295 162 295 140 C 295 124 285 112 270 106 C 282 100 290 88 290 72 C 290 48 272 20 240 20 Z
           M 210 95 L 210 55 L 238 55 C 252 55 256 65 256 72 C 256 82 250 95 238 95 Z
           M 210 125 L 210 155 L 240 155 C 258 155 262 142 262 140 C 262 130 256 125 240 125 Z" fill="#002d62"/>
</svg>
